<?xml version="1.0" encoding="UTF-8" standalone="no"?>
<svg
   xmlns:dc="http://purl.org/dc/elements/1.1/"
   xmlns:cc="http://creativecommons.org/ns#"
   xmlns:rdf="http://www.w3.org/1999/02/22-rdf-syntax-ns#"
   xmlns:svg="http://www.w3.org/2000/svg"
   xmlns="http://www.w3.org/2000/svg"
   xmlns:sodipodi="http://sodipodi.sourceforge.net/DTD/sodipodi-0.dtd"
   xmlns:inkscape="http://www.inkscape.org/namespaces/inkscape"
   width="64"
   height="64"
   viewBox="0 0 64 64"
   fill="none"
   version="1.1"
   id="svg4"
   sodipodi:docname="email.svg">
  <metadata
     id="metadata10">
    <rdf:RDF>
      <cc:Work
         rdf:about="">
        <dc:format>image/svg+xml</dc:format>
        <dc:type
           rdf:resource="http://purl.org/dc/dcmitype/StillImage" />
      </cc:Work>
    </rdf:RDF>
  </metadata>
  <defs
     id="defs8" />
  <sodipodi:namedview
     pagecolor="#ffffff"
     bordercolor="#666666"
     borderopacity="1"
     objecttolerance="10"
     gridtolerance="10"
     guidetolerance="10"
     inkscape:pageopacity="0"
     inkscape:pageshadow="2"
     inkscape:window-width="640"
     inkscape:window-height="480"
     id="namedview6" />
  <path
     d="M58.6667 22.9547V44.6667C58.6668 46.8804 57.8199 49.0102 56.2995 50.6193C54.7792 52.2284 52.7008 53.1947 50.4907 53.32L50 53.3333H14C11.7863 53.3335 9.65646 52.4865 8.04738 50.9662C6.43831 49.4459 5.472 47.3675 5.34667 45.1573L5.33333 44.6667V22.9547L31.072 36.4373C31.3583 36.5873 31.6768 36.6657 32 36.6657C32.3232 36.6657 32.6417 36.5873 32.928 36.4373L58.6667 22.9547ZM14 10.6667H50C52.1482 10.6664 54.22 11.464 55.8134 12.9047C57.4069 14.3454 58.4085 16.3266 58.624 18.464L32 32.4107L5.376 18.464C5.58273 16.4115 6.5148 14.5 8.00467 13.0732C9.49453 11.6464 11.4445 10.7978 13.504 10.68L14 10.6667H50H14Z"
     fill="#A5CEE0"
     id="path2" />
</svg>
